<!-- Generated by IcoMoon.io -->
<svg version="1.1" xmlns="http://www.w3.org/2000/svg" width="303" height="32" viewBox="0 0 303 32">
<title>email</title>
<path fill="#757575" d="M27.294 3.765h-24.471c-1.557 0-2.824 1.267-2.824 2.824v16.941c0 1.557 1.267 2.824 2.824 2.824h24.471c1.557 0 2.824-1.267 2.824-2.824v-16.941c0-1.557-1.267-2.824-2.824-2.824zM27.294 5.647c0.128 0 0.249 0.027 0.361 0.073l-12.596 10.917-12.596-10.917c0.111-0.046 0.233-0.073 0.361-0.073h24.471zM27.294 24.471h-24.471c-0.519 0-0.941-0.422-0.941-0.941v-15.821l12.56 10.885c0.177 0.153 0.397 0.23 0.617 0.23s0.439-0.076 0.617-0.23l12.56-10.885v15.821c0 0.519-0.422 0.941-0.941 0.941z"></path>
<path fill="#757575" d="M53.87 24.471h-3.127v-13.923h3.127v13.923zM50.55 6.932c0-0.48 0.15-0.879 0.45-1.197 0.309-0.317 0.746-0.476 1.312-0.476s1.004 0.159 1.313 0.476c0.309 0.317 0.463 0.716 0.463 1.197 0 0.472-0.155 0.866-0.463 1.184-0.309 0.309-0.746 0.463-1.313 0.463s-1.004-0.154-1.312-0.463c-0.3-0.317-0.45-0.712-0.45-1.184zM60.715 10.548l0.090 1.608c1.029-1.244 2.38-1.866 4.053-1.866 2.899 0 4.375 1.66 4.426 4.98v9.2h-3.127v-9.020c0-0.884-0.193-1.536-0.579-1.956-0.377-0.429-0.999-0.643-1.866-0.643-1.261 0-2.2 0.57-2.818 1.711v9.908h-3.127v-13.923h2.947zM74.109 24.471v-11.607h-2.123v-2.316h2.123v-1.274c0-1.544 0.429-2.737 1.287-3.577s2.059-1.261 3.603-1.261c0.549 0 1.132 0.077 1.75 0.232l-0.077 2.445c-0.343-0.069-0.742-0.103-1.197-0.103-1.493 0-2.239 0.768-2.239 2.303v1.235h2.831v2.316h-2.831v11.607h-3.127zM82.293 17.381c0-1.364 0.27-2.591 0.811-3.68 0.54-1.098 1.3-1.939 2.278-2.522 0.978-0.592 2.102-0.888 3.371-0.888 1.879 0 3.401 0.605 4.568 1.814 1.175 1.21 1.81 2.814 1.904 4.813l0.013 0.733c0 1.373-0.266 2.599-0.798 3.68-0.523 1.081-1.278 1.917-2.265 2.509-0.978 0.592-2.11 0.888-3.397 0.888-1.964 0-3.538-0.652-4.722-1.956-1.175-1.313-1.763-3.058-1.763-5.237v-0.154zM85.419 17.651c0 1.433 0.296 2.556 0.888 3.371 0.592 0.806 1.416 1.209 2.471 1.209s1.874-0.412 2.458-1.235c0.592-0.824 0.888-2.029 0.888-3.616 0-1.407-0.305-2.522-0.914-3.346-0.6-0.824-1.42-1.235-2.458-1.235-1.021 0-1.832 0.408-2.432 1.222-0.6 0.806-0.901 2.016-0.901 3.629zM119.209 17.805c-0.103 2.145-0.631 3.839-1.583 5.083-0.952 1.235-2.243 1.853-3.873 1.853-1.553 0-2.591-0.661-3.114-1.982-0.437 0.652-0.948 1.141-1.531 1.467-0.575 0.326-1.18 0.489-1.814 0.489-1.253 0-2.205-0.515-2.857-1.544-0.643-1.029-0.888-2.406-0.733-4.131 0.137-1.398 0.476-2.659 1.016-3.783 0.549-1.124 1.24-1.99 2.072-2.599 0.841-0.618 1.733-0.926 2.677-0.926 0.721 0 1.355 0.090 1.904 0.27 0.558 0.18 1.21 0.553 1.956 1.119l-0.669 7.244c-0.163 1.699 0.326 2.548 1.467 2.548 0.875 0 1.591-0.468 2.149-1.403 0.566-0.944 0.875-2.162 0.927-3.654 0.146-3.165-0.468-5.589-1.84-7.27-1.364-1.681-3.419-2.522-6.164-2.522-1.681 0-3.174 0.42-4.478 1.261-1.295 0.841-2.325 2.059-3.088 3.654-0.763 1.587-1.184 3.397-1.261 5.43-0.103 2.067 0.142 3.852 0.734 5.353 0.6 1.493 1.514 2.629 2.741 3.41 1.235 0.781 2.741 1.171 4.517 1.171 0.721 0 1.471-0.086 2.252-0.257 0.789-0.171 1.458-0.403 2.007-0.695l0.489 1.763c-0.523 0.343-1.231 0.618-2.123 0.824-0.884 0.214-1.776 0.322-2.677 0.322-2.179 0-4.049-0.463-5.61-1.39-1.561-0.918-2.732-2.252-3.513-4.002-0.806-1.81-1.162-3.976-1.068-6.498 0.103-2.35 0.63-4.461 1.583-6.331 0.952-1.879 2.252-3.337 3.899-4.375 1.656-1.038 3.539-1.557 5.649-1.557 2.136 0 3.972 0.472 5.507 1.415 1.544 0.935 2.698 2.286 3.461 4.053 0.763 1.759 1.094 3.822 0.991 6.189zM106.226 19.040c-0.111 1.167-0.009 2.055 0.309 2.664 0.317 0.6 0.824 0.901 1.518 0.901 0.463 0 0.901-0.202 1.313-0.605 0.412-0.412 0.746-0.974 1.004-1.686l0.579-6.344c-0.429-0.163-0.845-0.245-1.248-0.245-0.952 0-1.729 0.45-2.329 1.351-0.6 0.892-0.982 2.213-1.145 3.963zM121.924 17.406c0-2.145 0.498-3.865 1.493-5.16 0.995-1.304 2.329-1.956 4.002-1.956 1.476 0 2.668 0.515 3.577 1.544v-7.129h3.127v19.765h-2.831l-0.154-1.441c-0.935 1.132-2.183 1.698-3.745 1.698-1.63 0-2.951-0.656-3.963-1.969-1.004-1.312-1.505-3.097-1.505-5.353zM125.051 17.676c0 1.416 0.27 2.522 0.811 3.32 0.549 0.789 1.325 1.184 2.329 1.184 1.278 0 2.213-0.571 2.805-1.711v-5.945c-0.575-1.115-1.501-1.673-2.779-1.673-1.012 0-1.793 0.403-2.342 1.21-0.549 0.798-0.824 2.003-0.824 3.616zM144.043 24.728c-1.982 0-3.59-0.622-4.825-1.866-1.227-1.253-1.84-2.917-1.84-4.993v-0.386c0-1.39 0.266-2.629 0.798-3.719 0.54-1.098 1.295-1.952 2.265-2.561s2.050-0.914 3.243-0.914c1.896 0 3.358 0.605 4.388 1.814 1.038 1.21 1.557 2.921 1.557 5.134v1.261h-9.097c0.094 1.149 0.476 2.059 1.145 2.728 0.678 0.669 1.527 1.004 2.548 1.004 1.432 0 2.599-0.579 3.5-1.737l1.686 1.608c-0.558 0.832-1.304 1.48-2.239 1.943-0.927 0.455-1.969 0.682-3.127 0.682zM143.67 12.8c-0.858 0-1.553 0.3-2.085 0.901-0.523 0.601-0.858 1.437-1.004 2.509h5.958v-0.232c-0.069-1.047-0.347-1.836-0.836-2.368-0.489-0.54-1.167-0.811-2.033-0.811zM157.322 20.507l2.947-9.96h3.23l-4.825 13.923h-2.715l-4.864-13.923h3.243l2.985 9.959zM173.792 20.687c0-0.558-0.232-0.982-0.695-1.274-0.455-0.292-1.214-0.549-2.278-0.772s-1.952-0.506-2.664-0.849c-1.561-0.755-2.342-1.849-2.342-3.281 0-1.201 0.506-2.205 1.518-3.011s2.299-1.21 3.86-1.21c1.664 0 3.007 0.412 4.027 1.235 1.029 0.824 1.544 1.892 1.544 3.204h-3.127c0-0.601-0.223-1.098-0.669-1.493-0.446-0.403-1.038-0.605-1.776-0.605-0.686 0-1.248 0.159-1.686 0.476-0.429 0.317-0.643 0.742-0.643 1.274 0 0.48 0.201 0.854 0.605 1.12s1.218 0.536 2.445 0.811c1.227 0.266 2.187 0.588 2.882 0.965 0.703 0.369 1.222 0.815 1.557 1.338 0.343 0.523 0.515 1.158 0.515 1.904 0 1.252-0.519 2.269-1.557 3.050-1.038 0.772-2.398 1.158-4.079 1.158-1.141 0-2.158-0.206-3.050-0.618s-1.587-0.978-2.085-1.699c-0.498-0.721-0.746-1.497-0.746-2.329h3.037c0.043 0.738 0.322 1.308 0.837 1.711 0.515 0.395 1.197 0.592 2.046 0.592 0.824 0 1.45-0.155 1.879-0.463 0.429-0.317 0.643-0.729 0.643-1.235zM184.047 7.164v3.384h2.458v2.316h-2.458v7.772c0 0.532 0.103 0.918 0.309 1.158 0.215 0.232 0.592 0.347 1.132 0.347 0.36 0 0.725-0.043 1.094-0.129v2.419c-0.712 0.197-1.398 0.296-2.059 0.296-2.402 0-3.603-1.325-3.603-3.976v-7.888h-2.29v-2.316h2.29v-3.384h3.127zM197.865 23.107c-0.917 1.081-2.221 1.621-3.912 1.621-1.51 0-2.654-0.442-3.435-1.325-0.772-0.884-1.158-2.162-1.158-3.835v-9.020h3.127v8.982c0 1.767 0.734 2.651 2.2 2.651 1.519 0 2.543-0.545 3.076-1.634v-9.998h3.127v13.923h-2.948l-0.077-1.364zM204.017 17.406c0-2.145 0.497-3.865 1.493-5.16 0.994-1.304 2.328-1.956 4.002-1.956 1.476 0 2.667 0.515 3.576 1.544v-7.129h3.127v19.765h-2.831l-0.154-1.441c-0.936 1.132-2.184 1.698-3.744 1.698-1.63 0-2.952-0.656-3.962-1.969-1.005-1.312-1.506-3.097-1.506-5.353zM207.144 17.676c0 1.416 0.269 2.522 0.811 3.32 0.548 0.789 1.325 1.184 2.328 1.184 1.278 0 2.214-0.571 2.805-1.711v-5.945c-0.574-1.115-1.5-1.673-2.78-1.673-1.011 0-1.792 0.403-2.342 1.21-0.548 0.798-0.823 2.003-0.823 3.616zM223.33 24.471h-3.127v-13.923h3.127v13.923zM220.011 6.932c0-0.48 0.149-0.879 0.45-1.197 0.309-0.317 0.745-0.476 1.312-0.476s1.003 0.159 1.312 0.476c0.309 0.317 0.463 0.716 0.463 1.197 0 0.472-0.154 0.866-0.463 1.184-0.309 0.309-0.745 0.463-1.312 0.463s-1.003-0.154-1.312-0.463c-0.301-0.317-0.45-0.712-0.45-1.184zM226.688 17.381c0-1.364 0.271-2.591 0.811-3.68 0.54-1.098 1.299-1.939 2.278-2.522 0.977-0.592 2.101-0.888 3.371-0.888 1.879 0 3.401 0.605 4.567 1.814 1.176 1.21 1.811 2.814 1.905 4.813l0.013 0.733c0 1.373-0.265 2.599-0.798 3.68-0.523 1.081-1.278 1.917-2.264 2.509-0.977 0.592-2.11 0.888-3.398 0.888-1.963 0-3.537-0.652-4.721-1.956-1.176-1.313-1.764-3.058-1.764-5.237v-0.154zM229.815 17.651c0 1.433 0.296 2.556 0.888 3.371 0.591 0.806 1.416 1.209 2.47 1.209 1.056 0 1.875-0.412 2.458-1.235 0.593-0.824 0.888-2.029 0.888-3.616 0-1.407-0.305-2.522-0.915-3.346-0.6-0.824-1.419-1.235-2.456-1.235-1.022 0-1.832 0.408-2.432 1.222-0.6 0.806-0.902 2.016-0.902 3.629zM244.753 21.176c0.584 0 1.035 0.167 1.352 0.502 0.318 0.326 0.476 0.738 0.476 1.235 0 0.489-0.158 0.896-0.476 1.222-0.316 0.317-0.768 0.476-1.352 0.476-0.557 0-0.998-0.159-1.325-0.476-0.326-0.318-0.488-0.725-0.488-1.222s0.158-0.909 0.476-1.235c0.316-0.334 0.762-0.502 1.336-0.502zM256.412 22.232c0.779 0 1.427-0.227 1.943-0.682 0.514-0.455 0.789-1.016 0.823-1.686h2.948c-0.036 0.866-0.305 1.677-0.811 2.432-0.506 0.746-1.192 1.338-2.059 1.776-0.866 0.437-1.801 0.656-2.805 0.656-1.946 0-3.492-0.63-4.632-1.892s-1.711-3.002-1.711-5.224v-0.322c0-2.119 0.567-3.813 1.698-5.083 1.133-1.278 2.677-1.917 4.632-1.917 1.656 0 3.002 0.485 4.041 1.454 1.047 0.961 1.594 2.226 1.647 3.796h-2.948c-0.034-0.798-0.309-1.454-0.823-1.969-0.506-0.515-1.154-0.772-1.943-0.772-1.013 0-1.794 0.369-2.344 1.107-0.548 0.729-0.826 1.84-0.836 3.333v0.502c0 1.51 0.271 2.638 0.811 3.384 0.548 0.738 1.338 1.106 2.368 1.106zM264.427 17.381c0-1.364 0.271-2.591 0.811-3.68 0.54-1.098 1.299-1.939 2.278-2.522 0.977-0.592 2.101-0.888 3.371-0.888 1.879 0 3.401 0.605 4.567 1.814 1.176 1.21 1.811 2.814 1.905 4.813l0.013 0.733c0 1.373-0.265 2.599-0.798 3.68-0.523 1.081-1.278 1.917-2.264 2.509-0.977 0.592-2.11 0.888-3.398 0.888-1.963 0-3.537-0.652-4.721-1.956-1.176-1.313-1.764-3.058-1.764-5.237v-0.154zM267.554 17.651c0 1.433 0.296 2.556 0.888 3.371 0.591 0.806 1.416 1.209 2.47 1.209 1.056 0 1.875-0.412 2.458-1.235 0.593-0.824 0.888-2.029 0.888-3.616 0-1.407-0.305-2.522-0.915-3.346-0.6-0.824-1.419-1.235-2.456-1.235-1.022 0-1.832 0.408-2.432 1.222-0.6 0.806-0.902 2.016-0.902 3.629zM283.484 10.548l0.090 1.454c0.977-1.141 2.315-1.711 4.013-1.711 1.862 0 3.136 0.712 3.823 2.136 1.013-1.424 2.436-2.136 4.271-2.136 1.536 0 2.677 0.425 3.424 1.274 0.755 0.849 1.141 2.102 1.158 3.757v9.149h-3.127v-9.059c0-0.884-0.194-1.531-0.58-1.943s-1.024-0.618-1.916-0.618c-0.713 0-1.297 0.193-1.751 0.579-0.446 0.377-0.759 0.875-0.939 1.493l0.013 9.548h-3.127v-9.162c-0.043-1.638-0.881-2.458-2.509-2.458-1.254 0-2.14 0.51-2.664 1.531v10.088h-3.128v-13.923h2.948z"></path>
<path fill="#2196f3" d="M53.87 24.471h-3.127v-13.923h3.127v13.923zM50.55 6.932c0-0.48 0.15-0.879 0.45-1.197 0.309-0.317 0.746-0.476 1.312-0.476s1.004 0.159 1.313 0.476c0.309 0.317 0.463 0.716 0.463 1.197 0 0.472-0.155 0.866-0.463 1.184-0.309 0.309-0.746 0.463-1.313 0.463s-1.004-0.154-1.312-0.463c-0.3-0.317-0.45-0.712-0.45-1.184zM60.715 10.548l0.090 1.608c1.029-1.244 2.38-1.866 4.053-1.866 2.899 0 4.375 1.66 4.426 4.98v9.2h-3.127v-9.020c0-0.884-0.193-1.536-0.579-1.956-0.377-0.429-0.999-0.643-1.866-0.643-1.261 0-2.2 0.57-2.818 1.711v9.908h-3.127v-13.923h2.947zM74.109 24.471v-11.607h-2.123v-2.316h2.123v-1.274c0-1.544 0.429-2.737 1.287-3.577s2.059-1.261 3.603-1.261c0.549 0 1.132 0.077 1.75 0.232l-0.077 2.445c-0.343-0.069-0.742-0.103-1.197-0.103-1.493 0-2.239 0.768-2.239 2.303v1.235h2.831v2.316h-2.831v11.607h-3.127zM82.293 17.381c0-1.364 0.27-2.591 0.811-3.68 0.54-1.098 1.3-1.939 2.278-2.522 0.978-0.592 2.102-0.888 3.371-0.888 1.879 0 3.401 0.605 4.568 1.814 1.175 1.21 1.81 2.814 1.904 4.813l0.013 0.733c0 1.373-0.266 2.599-0.798 3.68-0.523 1.081-1.278 1.917-2.265 2.509-0.978 0.592-2.11 0.888-3.397 0.888-1.964 0-3.538-0.652-4.722-1.956-1.175-1.313-1.763-3.058-1.763-5.237v-0.154zM85.419 17.651c0 1.433 0.296 2.556 0.888 3.371 0.592 0.806 1.416 1.209 2.471 1.209s1.874-0.412 2.458-1.235c0.592-0.824 0.888-2.029 0.888-3.616 0-1.407-0.305-2.522-0.914-3.346-0.6-0.824-1.42-1.235-2.458-1.235-1.021 0-1.832 0.408-2.432 1.222-0.6 0.806-0.901 2.016-0.901 3.629zM119.209 17.805c-0.103 2.145-0.631 3.839-1.583 5.083-0.952 1.235-2.243 1.853-3.873 1.853-1.553 0-2.591-0.661-3.114-1.982-0.437 0.652-0.948 1.141-1.531 1.467-0.575 0.326-1.18 0.489-1.814 0.489-1.253 0-2.205-0.515-2.857-1.544-0.643-1.029-0.888-2.406-0.733-4.131 0.137-1.398 0.476-2.659 1.016-3.783 0.549-1.124 1.24-1.99 2.072-2.599 0.841-0.618 1.733-0.926 2.677-0.926 0.721 0 1.355 0.090 1.904 0.27 0.558 0.18 1.21 0.553 1.956 1.119l-0.669 7.244c-0.163 1.699 0.326 2.548 1.467 2.548 0.875 0 1.591-0.468 2.149-1.403 0.566-0.944 0.875-2.162 0.927-3.654 0.146-3.165-0.468-5.589-1.84-7.27-1.364-1.681-3.419-2.522-6.164-2.522-1.681 0-3.174 0.42-4.478 1.261-1.295 0.841-2.325 2.059-3.088 3.654-0.763 1.587-1.184 3.397-1.261 5.43-0.103 2.067 0.142 3.852 0.734 5.353 0.6 1.493 1.514 2.629 2.741 3.41 1.235 0.781 2.741 1.171 4.517 1.171 0.721 0 1.471-0.086 2.252-0.257 0.789-0.171 1.458-0.403 2.007-0.695l0.489 1.763c-0.523 0.343-1.231 0.618-2.123 0.824-0.884 0.214-1.776 0.322-2.677 0.322-2.179 0-4.049-0.463-5.61-1.39-1.561-0.918-2.732-2.252-3.513-4.002-0.806-1.81-1.162-3.976-1.068-6.498 0.103-2.35 0.63-4.461 1.583-6.331 0.952-1.879 2.252-3.337 3.899-4.375 1.656-1.038 3.539-1.557 5.649-1.557 2.136 0 3.972 0.472 5.507 1.415 1.544 0.935 2.698 2.286 3.461 4.053 0.763 1.759 1.094 3.822 0.991 6.189zM106.226 19.040c-0.111 1.167-0.009 2.055 0.309 2.664 0.317 0.6 0.824 0.901 1.518 0.901 0.463 0 0.901-0.202 1.313-0.605 0.412-0.412 0.746-0.974 1.004-1.686l0.579-6.344c-0.429-0.163-0.845-0.245-1.248-0.245-0.952 0-1.729 0.45-2.329 1.351-0.6 0.892-0.982 2.213-1.145 3.963zM121.924 17.406c0-2.145 0.498-3.865 1.493-5.16 0.995-1.304 2.329-1.956 4.002-1.956 1.476 0 2.668 0.515 3.577 1.544v-7.129h3.127v19.765h-2.831l-0.154-1.441c-0.935 1.132-2.183 1.698-3.745 1.698-1.63 0-2.951-0.656-3.963-1.969-1.004-1.312-1.505-3.097-1.505-5.353zM125.051 17.676c0 1.416 0.27 2.522 0.811 3.32 0.549 0.789 1.325 1.184 2.329 1.184 1.278 0 2.213-0.571 2.805-1.711v-5.945c-0.575-1.115-1.501-1.673-2.779-1.673-1.012 0-1.793 0.403-2.342 1.21-0.549 0.798-0.824 2.003-0.824 3.616zM144.043 24.728c-1.982 0-3.59-0.622-4.825-1.866-1.227-1.253-1.84-2.917-1.84-4.993v-0.386c0-1.39 0.266-2.629 0.798-3.719 0.54-1.098 1.295-1.952 2.265-2.561s2.050-0.914 3.243-0.914c1.896 0 3.358 0.605 4.388 1.814 1.038 1.21 1.557 2.921 1.557 5.134v1.261h-9.097c0.094 1.149 0.476 2.059 1.145 2.728 0.678 0.669 1.527 1.004 2.548 1.004 1.432 0 2.599-0.579 3.5-1.737l1.686 1.608c-0.558 0.832-1.304 1.48-2.239 1.943-0.927 0.455-1.969 0.682-3.127 0.682zM143.67 12.8c-0.858 0-1.553 0.3-2.085 0.901-0.523 0.601-0.858 1.437-1.004 2.509h5.958v-0.232c-0.069-1.047-0.347-1.836-0.836-2.368-0.489-0.54-1.167-0.811-2.033-0.811zM157.322 20.507l2.947-9.96h3.23l-4.825 13.923h-2.715l-4.864-13.923h3.243l2.985 9.959zM173.792 20.687c0-0.558-0.232-0.982-0.695-1.274-0.455-0.292-1.214-0.549-2.278-0.772s-1.952-0.506-2.664-0.849c-1.561-0.755-2.342-1.849-2.342-3.281 0-1.201 0.506-2.205 1.518-3.011s2.299-1.21 3.86-1.21c1.664 0 3.007 0.412 4.027 1.235 1.029 0.824 1.544 1.892 1.544 3.204h-3.127c0-0.601-0.223-1.098-0.669-1.493-0.446-0.403-1.038-0.605-1.776-0.605-0.686 0-1.248 0.159-1.686 0.476-0.429 0.317-0.643 0.742-0.643 1.274 0 0.48 0.201 0.854 0.605 1.12s1.218 0.536 2.445 0.811c1.227 0.266 2.187 0.588 2.882 0.965 0.703 0.369 1.222 0.815 1.557 1.338 0.343 0.523 0.515 1.158 0.515 1.904 0 1.252-0.519 2.269-1.557 3.050-1.038 0.772-2.398 1.158-4.079 1.158-1.141 0-2.158-0.206-3.050-0.618s-1.587-0.978-2.085-1.699c-0.498-0.721-0.746-1.497-0.746-2.329h3.037c0.043 0.738 0.322 1.308 0.837 1.711 0.515 0.395 1.197 0.592 2.046 0.592 0.824 0 1.45-0.155 1.879-0.463 0.429-0.317 0.643-0.729 0.643-1.235zM184.047 7.164v3.384h2.458v2.316h-2.458v7.772c0 0.532 0.103 0.918 0.309 1.158 0.215 0.232 0.592 0.347 1.132 0.347 0.36 0 0.725-0.043 1.094-0.129v2.419c-0.712 0.197-1.398 0.296-2.059 0.296-2.402 0-3.603-1.325-3.603-3.976v-7.888h-2.29v-2.316h2.29v-3.384h3.127zM197.865 23.107c-0.917 1.081-2.221 1.621-3.912 1.621-1.51 0-2.654-0.442-3.435-1.325-0.772-0.884-1.158-2.162-1.158-3.835v-9.020h3.127v8.982c0 1.767 0.734 2.651 2.2 2.651 1.519 0 2.543-0.545 3.076-1.634v-9.998h3.127v13.923h-2.948l-0.077-1.364zM204.017 17.406c0-2.145 0.497-3.865 1.493-5.16 0.994-1.304 2.328-1.956 4.002-1.956 1.476 0 2.667 0.515 3.576 1.544v-7.129h3.127v19.765h-2.831l-0.154-1.441c-0.936 1.132-2.184 1.698-3.744 1.698-1.63 0-2.952-0.656-3.962-1.969-1.005-1.312-1.506-3.097-1.506-5.353zM207.144 17.676c0 1.416 0.269 2.522 0.811 3.32 0.548 0.789 1.325 1.184 2.328 1.184 1.278 0 2.214-0.571 2.805-1.711v-5.945c-0.574-1.115-1.5-1.673-2.78-1.673-1.011 0-1.792 0.403-2.342 1.21-0.548 0.798-0.823 2.003-0.823 3.616zM223.33 24.471h-3.127v-13.923h3.127v13.923zM220.011 6.932c0-0.48 0.149-0.879 0.45-1.197 0.309-0.317 0.745-0.476 1.312-0.476s1.003 0.159 1.312 0.476c0.309 0.317 0.463 0.716 0.463 1.197 0 0.472-0.154 0.866-0.463 1.184-0.309 0.309-0.745 0.463-1.312 0.463s-1.003-0.154-1.312-0.463c-0.301-0.317-0.45-0.712-0.45-1.184zM226.688 17.381c0-1.364 0.271-2.591 0.811-3.68 0.54-1.098 1.299-1.939 2.278-2.522 0.977-0.592 2.101-0.888 3.371-0.888 1.879 0 3.401 0.605 4.567 1.814 1.176 1.21 1.811 2.814 1.905 4.813l0.013 0.733c0 1.373-0.265 2.599-0.798 3.68-0.523 1.081-1.278 1.917-2.264 2.509-0.977 0.592-2.11 0.888-3.398 0.888-1.963 0-3.537-0.652-4.721-1.956-1.176-1.313-1.764-3.058-1.764-5.237v-0.154zM229.815 17.651c0 1.433 0.296 2.556 0.888 3.371 0.591 0.806 1.416 1.209 2.47 1.209 1.056 0 1.875-0.412 2.458-1.235 0.593-0.824 0.888-2.029 0.888-3.616 0-1.407-0.305-2.522-0.915-3.346-0.6-0.824-1.419-1.235-2.456-1.235-1.022 0-1.832 0.408-2.432 1.222-0.6 0.806-0.902 2.016-0.902 3.629zM244.753 21.176c0.584 0 1.035 0.167 1.352 0.502 0.318 0.326 0.476 0.738 0.476 1.235 0 0.489-0.158 0.896-0.476 1.222-0.316 0.317-0.768 0.476-1.352 0.476-0.557 0-0.998-0.159-1.325-0.476-0.326-0.318-0.488-0.725-0.488-1.222s0.158-0.909 0.476-1.235c0.316-0.334 0.762-0.502 1.336-0.502zM256.412 22.232c0.779 0 1.427-0.227 1.943-0.682 0.514-0.455 0.789-1.016 0.823-1.686h2.948c-0.036 0.866-0.305 1.677-0.811 2.432-0.506 0.746-1.192 1.338-2.059 1.776-0.866 0.437-1.801 0.656-2.805 0.656-1.946 0-3.492-0.63-4.632-1.892s-1.711-3.002-1.711-5.224v-0.322c0-2.119 0.567-3.813 1.698-5.083 1.133-1.278 2.677-1.917 4.632-1.917 1.656 0 3.002 0.485 4.041 1.454 1.047 0.961 1.594 2.226 1.647 3.796h-2.948c-0.034-0.798-0.309-1.454-0.823-1.969-0.506-0.515-1.154-0.772-1.943-0.772-1.013 0-1.794 0.369-2.344 1.107-0.548 0.729-0.826 1.84-0.836 3.333v0.502c0 1.51 0.271 2.638 0.811 3.384 0.548 0.738 1.338 1.106 2.368 1.106zM264.427 17.381c0-1.364 0.271-2.591 0.811-3.68 0.54-1.098 1.299-1.939 2.278-2.522 0.977-0.592 2.101-0.888 3.371-0.888 1.879 0 3.401 0.605 4.567 1.814 1.176 1.21 1.811 2.814 1.905 4.813l0.013 0.733c0 1.373-0.265 2.599-0.798 3.68-0.523 1.081-1.278 1.917-2.264 2.509-0.977 0.592-2.11 0.888-3.398 0.888-1.963 0-3.537-0.652-4.721-1.956-1.176-1.313-1.764-3.058-1.764-5.237v-0.154zM267.554 17.651c0 1.433 0.296 2.556 0.888 3.371 0.591 0.806 1.416 1.209 2.47 1.209 1.056 0 1.875-0.412 2.458-1.235 0.593-0.824 0.888-2.029 0.888-3.616 0-1.407-0.305-2.522-0.915-3.346-0.6-0.824-1.419-1.235-2.456-1.235-1.022 0-1.832 0.408-2.432 1.222-0.6 0.806-0.902 2.016-0.902 3.629zM283.484 10.548l0.090 1.454c0.977-1.141 2.315-1.711 4.013-1.711 1.862 0 3.136 0.712 3.823 2.136 1.013-1.424 2.436-2.136 4.271-2.136 1.536 0 2.677 0.425 3.424 1.274 0.755 0.849 1.141 2.102 1.158 3.757v9.149h-3.127v-9.059c0-0.884-0.194-1.531-0.58-1.943s-1.024-0.618-1.916-0.618c-0.713 0-1.297 0.193-1.751 0.579-0.446 0.377-0.759 0.875-0.939 1.493l0.013 9.548h-3.127v-9.162c-0.043-1.638-0.881-2.458-2.509-2.458-1.254 0-2.14 0.51-2.664 1.531v10.088h-3.128v-13.923h2.948z"></path>
<path fill="#2196f3" d="M27.294 3.765h-24.471c-1.557 0-2.824 1.267-2.824 2.824v16.941c0 1.557 1.267 2.824 2.824 2.824h24.471c1.557 0 2.824-1.267 2.824-2.824v-16.941c0-1.557-1.267-2.824-2.824-2.824zM27.294 5.647c0.128 0 0.249 0.027 0.361 0.073l-12.596 10.917-12.596-10.917c0.111-0.046 0.233-0.073 0.361-0.073h24.471zM27.294 24.471h-24.471c-0.519 0-0.941-0.422-0.941-0.941v-15.821l12.56 10.885c0.177 0.153 0.397 0.23 0.617 0.23s0.439-0.076 0.617-0.23l12.56-10.885v15.821c0 0.519-0.422 0.941-0.941 0.941z"></path>
</svg>
