<!-- Generated by IcoMoon.io -->
<svg version="1.1" xmlns="http://www.w3.org/2000/svg" width="284" height="32" viewBox="0 0 284 32">
<title>tel</title>
<path fill="#757575" d="M49.379 15.049h5.195v3.035h-5.195v5.92h-3.227v-5.92h-5.223v-3.035h5.223v-5.537h3.227v5.537zM61.505 14.529h2.023c1.021-0.009 1.827-0.273 2.42-0.793 0.602-0.52 0.902-1.271 0.902-2.256 0-0.948-0.251-1.682-0.752-2.201-0.492-0.529-1.249-0.793-2.269-0.793-0.893 0-1.627 0.26-2.201 0.779-0.574 0.51-0.861 1.18-0.861 2.010h-3.322c0-1.021 0.269-1.951 0.807-2.789 0.547-0.839 1.303-1.49 2.27-1.955 0.975-0.474 2.064-0.711 3.268-0.711 1.987 0 3.545 0.501 4.676 1.504 1.139 0.993 1.709 2.379 1.709 4.156 0 0.893-0.287 1.736-0.861 2.529-0.565 0.784-1.299 1.376-2.201 1.777 1.094 0.374 1.923 0.962 2.488 1.764 0.574 0.802 0.861 1.759 0.861 2.871 0 1.787-0.615 3.208-1.846 4.266-1.221 1.057-2.83 1.586-4.826 1.586-1.914 0-3.482-0.51-4.703-1.531s-1.832-2.379-1.832-4.074h3.322c0 0.875 0.292 1.586 0.875 2.133 0.592 0.547 1.385 0.82 2.379 0.82 1.030 0 1.841-0.273 2.434-0.82s0.889-1.34 0.889-2.379c0-1.048-0.31-1.855-0.93-2.42s-1.54-0.848-2.762-0.848h-1.955v-2.625zM86.675 11.344c0 0.975-0.251 1.846-0.752 2.611-0.501 0.756-1.185 1.354-2.051 1.791 1.039 0.483 1.837 1.144 2.393 1.982 0.565 0.839 0.848 1.786 0.848 2.844 0 1.75-0.592 3.14-1.777 4.17-1.185 1.021-2.762 1.531-4.73 1.531-1.978 0-3.564-0.515-4.758-1.545-1.185-1.030-1.777-2.415-1.777-4.156 0-1.066 0.283-2.023 0.848-2.871s1.358-1.499 2.379-1.955c-0.857-0.438-1.536-1.035-2.037-1.791-0.492-0.766-0.738-1.636-0.738-2.611 0-1.695 0.547-3.040 1.641-4.033s2.57-1.49 4.43-1.49c1.868 0 3.35 0.497 4.443 1.49s1.641 2.338 1.641 4.033zM83.79 20.408c0-0.984-0.296-1.777-0.889-2.379-0.583-0.611-1.358-0.916-2.324-0.916s-1.741 0.301-2.324 0.902c-0.574 0.602-0.861 1.399-0.861 2.393 0 0.975 0.283 1.755 0.848 2.338 0.574 0.583 1.363 0.875 2.365 0.875s1.782-0.282 2.338-0.848c0.565-0.565 0.848-1.353 0.848-2.365zM83.366 11.467c0-0.866-0.251-1.577-0.752-2.133-0.501-0.565-1.176-0.848-2.023-0.848s-1.518 0.269-2.010 0.807c-0.492 0.529-0.738 1.253-0.738 2.174 0 0.911 0.246 1.636 0.738 2.174 0.501 0.538 1.176 0.807 2.023 0.807s1.518-0.269 2.010-0.807c0.501-0.538 0.752-1.262 0.752-2.174zM111.119 17.619c0 2.862-0.538 5.022-1.613 6.48-1.066 1.449-2.693 2.174-4.881 2.174-2.151 0-3.773-0.706-4.867-2.119-1.085-1.422-1.641-3.523-1.668-6.303v-3.445c0-2.862 0.533-5.008 1.6-6.439 1.076-1.431 2.712-2.146 4.908-2.146 2.178 0 3.801 0.697 4.867 2.092 1.076 1.395 1.627 3.482 1.654 6.262v3.445zM107.797 13.9c0-1.869-0.255-3.236-0.766-4.102-0.51-0.875-1.322-1.313-2.434-1.313-1.085 0-1.882 0.415-2.393 1.244-0.51 0.82-0.779 2.105-0.807 3.855v4.512c0 1.859 0.26 3.245 0.779 4.156s1.335 1.367 2.447 1.367c1.066 0 1.855-0.419 2.365-1.258 0.51-0.848 0.779-2.169 0.807-3.965v-4.498zM124.038 17.674c-1.112 1.176-2.411 1.764-3.896 1.764-1.75 0-3.145-0.611-4.184-1.832-1.039-1.23-1.559-2.844-1.559-4.84 0-1.313 0.264-2.502 0.793-3.568s1.281-1.896 2.256-2.488c0.975-0.592 2.106-0.889 3.391-0.889 2.005 0 3.596 0.747 4.772 2.242s1.764 3.495 1.764 6.002v0.93c0 3.591-0.811 6.33-2.434 8.217s-4.042 2.844-7.26 2.871h-0.396v-2.748h0.478c1.96-0.027 3.464-0.497 4.512-1.408 1.048-0.921 1.636-2.338 1.764-4.252zM120.839 16.84c0.665 0 1.29-0.191 1.873-0.574s1.034-0.911 1.353-1.586v-1.299c0-1.467-0.301-2.648-0.902-3.541s-1.381-1.34-2.338-1.34-1.723 0.396-2.297 1.189c-0.565 0.784-0.848 1.777-0.848 2.98 0 1.249 0.287 2.256 0.861 3.021s1.34 1.148 2.297 1.148zM141.428 5.998v2.748h-0.41c-1.859 0.027-3.345 0.538-4.457 1.531s-1.773 2.402-1.982 4.225c1.066-1.121 2.429-1.682 4.088-1.682 1.759 0 3.145 0.62 4.156 1.859 1.021 1.24 1.531 2.839 1.531 4.799 0 2.023-0.597 3.664-1.791 4.922-1.185 1.249-2.744 1.873-4.676 1.873-1.987 0-3.6-0.734-4.84-2.201-1.231-1.467-1.846-3.391-1.846-5.769v-1.135c0-3.491 0.848-6.225 2.543-8.203 1.704-1.978 4.152-2.967 7.342-2.967h0.342zM137.86 15.5c-0.729 0-1.399 0.205-2.010 0.615-0.602 0.41-1.044 0.957-1.326 1.641v1.012c0 1.477 0.31 2.652 0.93 3.527 0.62 0.866 1.422 1.299 2.406 1.299s1.764-0.369 2.338-1.107c0.574-0.738 0.861-1.709 0.861-2.912s-0.292-2.183-0.875-2.939-1.358-1.135-2.324-1.135zM164.095 26h-3.309v-15.982l-4.881 1.668v-2.803l7.766-2.857h0.424v19.975zM180.569 26h-3.309v-15.982l-4.881 1.668v-2.803l7.766-2.857h0.424v19.975zM197.043 26h-3.309v-15.982l-4.881 1.668v-2.803l7.766-2.857h0.424v19.975zM221.050 26h-3.308v-15.982l-4.882 1.668v-2.803l7.766-2.857h0.424v19.975zM237.524 26h-3.308v-15.982l-4.882 1.668v-2.803l7.766-2.857h0.424v19.975zM261.53 26h-3.308v-15.982l-4.88 1.668v-2.803l7.766-2.857h0.422v19.975zM278.004 26h-3.308v-15.982l-4.88 1.668v-2.803l7.766-2.857h0.422v19.975z"></path>
<path fill="#757575" d="M17 0h-14c-1.654 0-3 1.346-3 3v26c0 1.654 1.346 3 3 3h14c1.654 0 3-1.346 3-3v-26c0-1.654-1.346-3-3-3zM3 2h14c0.552 0 1 0.448 1 1v21h-16v-21c0-0.552 0.448-1 1-1zM17 30h-14c-0.552 0-1-0.448-1-1v-3h16v3c0 0.552-0.448 1-1 1z"></path>
<path fill="#757575" d="M4.707 27.478c0.391 0.365 0.391 0.956 0 1.321s-1.024 0.365-1.414 0c-0.391-0.365-0.391-0.956 0-1.321s1.024-0.365 1.414 0z"></path>
</svg>
